<svg xmlns="http://www.w3.org/2000/svg" viewBox="0 0 100 100" width="100" height="100"><path fill="#c7ede6" d="M87.215 56.71A15.4 15.4 0 0 0 89 49.5c0-6.621-4.159-12.257-10.001-14.478L79 35c0-11.598-9.402-21-21-21-9.784 0-17.981 6.701-20.313 15.757A15 15 0 0 0 33 29c-7.692 0-14.023 5.793-14.89 13.252C12.906 43.353 9 47.969 9 53.5 9 59.851 14.149 65 20.5 65c.177 0 .352-.012.526-.022-.004.175-.026.346-.026.522C21 76.822 30.178 86 41.5 86c6.437 0 12.175-2.972 15.934-7.614A11.95 11.95 0 0 0 66 82c4.65 0 8.674-2.65 10.666-6.518 1.052.335 2.171.518 3.334.518 6.075 0 11-4.925 11-11 0-3.311-1.47-6.273-3.785-8.29"/><path fill="#fdfcef" d="M65.5 30.5v.5h-3v-.5H57a4.5 4.5 0 0 1-4.5-4.5c0-2.333 1.782-4.229 4.055-4.455-.022-.181-.055-.358-.055-.545a4.5 4.5 0 0 1 4.5-4.5c1.438 0 2.703.686 3.527 1.736.14-2.636 2.302-4.736 4.973-4.736a5 5 0 0 1 5 5c0 .446-.077.87-.187 1.282A3.48 3.48 0 0 1 77 18.5a3.49 3.49 0 0 1 3.455 3.055c.181-.022.358-.055.545-.055a4.5 4.5 0 0 1 0 9z"/><path fill="#472b29" d="M69.5 13c3.033 0 5.5 2.467 5.5 5.5v.047A3.93 3.93 0 0 1 77 18a4 4 0 0 1 3.858 3.005A2 2 0 0 1 81 21c2.757 0 5 2.243 5 5s-2.243 5-5 5H65.5a.5.5 0 0 1 0-1H81c2.206 0 4-1.794 4-4s-1.794-4-4-4c-.117 0-.23.017-.343.032l-.141.019a.5.5 0 0 1-.557-.433A2.996 2.996 0 0 0 77 19c-.885 0-1.723.401-2.301 1.1a.5.5 0 0 1-.614.126.5.5 0 0 1-.254-.573A4.5 4.5 0 0 0 74 18.5c0-2.481-2.019-4.5-4.5-4.5-2.381 0-4.347 1.872-4.474 4.263a.5.5 0 0 1-.893.282A3.97 3.97 0 0 0 61 17c-2.206 0-4 1.794-4 4 0 .117.017.23.032.343l.019.141a.5.5 0 0 1-.446.558A3.976 3.976 0 0 0 53 26c0 2.206 1.794 4 4 4h5.5a.5.5 0 0 1 0 1H57c-2.757 0-5-2.243-5-5a4.966 4.966 0 0 1 4.003-4.877L56 21c0-2.757 2.243-5 5-5 1.176 0 2.293.416 3.183 1.164A5.486 5.486 0 0 1 69.5 13"/><path fill="#472b29" d="M71 20c1.403 0 2.609.999 2.913 2.341A2.34 2.34 0 0 1 75.125 22c1.202 0 2.198.897 2.353 2.068a2.6 2.6 0 0 1 .585-.068 2.94 2.94 0 0 1 2.918 2.732.25.25 0 0 1-.232.268h-.018a.25.25 0 0 1-.249-.232 2.44 2.44 0 0 0-2.419-2.268c-.229 0-.47.042-.738.127a.2.2 0 0 1-.067.01.26.26 0 0 1-.258-.262 1.877 1.877 0 0 0-1.875-1.875c-.447 0-.885.168-1.231.473a.25.25 0 0 1-.165.063.2.2 0 0 1-.093-.019.25.25 0 0 1-.155-.212C73.377 21.512 72.288 20.5 71 20.5c-.208 0-.425.034-.682.107a.25.25 0 0 1-.137-.481A3 3 0 0 1 71 20m-13.883 1.5c1.326 0 2.508.897 2.874 2.182a.25.25 0 1 1-.481.136A2.505 2.505 0 0 0 57.117 22c-.117 0-.23.014-.342.029l-.035.003a.25.25 0 0 1-.246-.217.25.25 0 0 1 .214-.281c.134-.018.27-.034.409-.034"/><path fill="#fdfcef" d="M52.083 76.246c-14.578 0-22.283-3.385-22.283-9.788V41.467c0-9.885 12.366-14.332 21.147-14.332h2.272c8.781 0 21.147 4.447 21.147 14.332v24.991c.001 6.403-7.705 9.788-22.283 9.788"/><path fill="#472b29" d="M53.219 27.835c9.064 0 20.447 4.568 20.447 13.632v24.991c0 6.816-9.663 9.088-21.583 9.088S30.5 73.274 30.5 66.458V41.467c0-9.064 11.384-13.632 20.447-13.632zm0-1.399h-2.272c-9.072 0-21.847 4.664-21.847 15.032v24.991c0 4.784 3.987 10.488 22.983 10.488s22.983-5.703 22.983-10.488V41.467c.001-10.368-12.775-15.031-21.847-15.031"/><path fill="#ef9922" d="M52.346 30.107h-.744c-12.978 0-18.883 7.58-18.883 11.283.039.865.447 1.213 1.399 1.213H69.83c.952 0 1.36-.347 1.399-1.213 0-3.702-5.905-11.283-18.883-11.283m17.658 36.351H33.945a.935.935 0 0 0-.876 1.254c1.287 3.559 8.147 5.562 18.905 5.562s17.618-2.003 18.905-5.562a.934.934 0 0 0-.875-1.254"/><path fill="#472b29" d="M69.83 42.853H34.119c-1.095 0-1.603-.448-1.648-1.452 0-1.244.618-2.792 1.697-4.261a.25.25 0 1 1 .403.296c-1.017 1.384-1.6 2.825-1.6 3.954.032.717.322.963 1.148.963H69.83c.826 0 1.116-.246 1.148-.974 0-3.235-5.361-11.021-18.632-11.021h-.744c-.938 0-1.867.041-2.761.121-.154.01-.26-.09-.271-.227a.25.25 0 0 1 .227-.271 31 31 0 0 1 2.806-.123h.744c12.738 0 19.132 7.394 19.132 11.533-.046 1.014-.554 1.462-1.649 1.462m-33.856-7.121a.249.249 0 0 1-.172-.431c1.193-1.132 2.609-2.116 4.209-2.925a.25.25 0 0 1 .335.11.25.25 0 0 1-.11.336c-1.556.787-2.932 1.743-4.09 2.841a.25.25 0 0 1-.172.069m6.365-3.843a.25.25 0 0 1-.086-.485 24.3 24.3 0 0 1 3.97-1.076.25.25 0 0 1 .291.201.25.25 0 0 1-.201.292c-1.36.25-2.668.604-3.888 1.053a.3.3 0 0 1-.086.015m19.275 40.944a.25.25 0 0 1-.041-.496c1.702-.286 3.203-.662 4.461-1.116.13-.045.273.021.32.15s-.021.273-.15.32c-1.286.464-2.816.847-4.549 1.138a.2.2 0 0 1-.041.004"/><path fill="#472b29" d="M51.975 73.524c-11.007 0-17.805-2.034-19.141-5.728a1.188 1.188 0 0 1 1.112-1.589h36.059c.39 0 .741.184.966.503.223.317.276.723.146 1.086-.399 1.105-1.307 2.075-2.697 2.885a.25.25 0 0 1-.342-.09.25.25 0 0 1 .09-.342c1.286-.749 2.12-1.632 2.479-2.623a.68.68 0 0 0-.084-.629.67.67 0 0 0-.557-.29H33.945a.67.67 0 0 0-.557.29.68.68 0 0 0-.084.629c1.24 3.43 8.046 5.397 18.67 5.397 2.663 0 5.12-.124 7.301-.369a.243.243 0 0 1 .276.22.25.25 0 0 1-.22.276c-2.199.249-4.675.374-7.356.374"/><path fill="#ee3e54" d="M63.902 46.011a1.137 1.137 0 0 0 0-2.272h-2.737c-.018 0-.033.01-.051.01-.018-.001-.033-.01-.051-.01-.627 0-1.136.509-1.136 1.136v2.924h-.007c0 .011.006.019.006.03v2.725c0 .627.509 1.136 1.136 1.136h2.84a1.137 1.137 0 0 0 0-2.272h-1.704v-.593h1.313a1.026 1.026 0 1 0 0-2.052h-1.313v-.763zm-19.874-2.272c-.665 0-1.204.509-1.204 1.136v3.976c0 .313-.27.568-.602.568s-.602-.255-.602-.568v-3.976c0-.627-.538-1.136-1.204-1.136a1.21 1.21 0 0 0-1.085.644 1.1 1.1 0 0 0-.118.492v3.976c0 1.566 1.349 2.84 3.009 2.84s3.009-1.274 3.009-2.84v-3.976c0-.627-.538-1.136-1.203-1.136m-6.341 3.803c.362-.426.585-.975.585-1.612 0-1.468-1.218-2.191-2.409-2.191h-2.116c-.106 0-.165.022-.207.052-.499.12-.877.548-.877 1.084v5.68c0 .627.509 1.136 1.136 1.136q.011-.002.021-.004c.01-.002.011.004.019.004h2.191c1.467 0 2.549-.788 2.549-2.262 0-.832-.342-1.473-.892-1.887m-1.452-1.264c0 .215-.133.696-.594.696h-.706v-1.331h.706c.389 0 .594.42.594.635m-.371 3.693h-.929v-1.33h.929c.214 0 .525.256.525.655 0 .419-.311.675-.525.675m16.04-3.732c0-1.699-1.218-2.5-2.409-2.5h-2.116c-.024 0-.034.006-.054.008-.014 0-.025-.008-.039-.008-.627 0-1.136.509-1.136 1.136v5.68a1.137 1.137 0 0 0 2.272 0v-1.57h.478c.142.559.435 1.267.677 1.74.245.544.716.965 1.343.965s1.136-.509 1.136-1.136c0-.648-.558-1.07-.988-2.23.514-.473.836-1.18.836-2.085m-3.482-.596h.476c.389 0 .884.229.884.732 0 .585-.423.789-.884.789h-.476zm21.957 2.682c.514-.473.836-1.181.836-2.086 0-1.699-1.218-2.5-2.409-2.5H66.69c-.106 0-.165.022-.207.052-.499.12-.877.548-.877 1.084v5.68a1.137 1.137 0 0 0 2.272 0v-1.57h.333c.142.559.435 1.267.677 1.74.245.544.716.965 1.343.965s1.136-.509 1.136-1.136c.001-.647-.558-1.069-.988-2.229m-2.501-2.682h.331c.389 0 .884.229.884.732 0 .585-.423.789-.884.789h-.331zm-10.184 1.146-.361-.006a25 25 0 0 0-.579-.008c-.638 0-1.155.509-1.155 1.136s.517 1.136 1.155 1.136l.18.001c-.169.263-.563.51-.881.51-1.163 0-1.408-1.002-1.408-1.843 0-.94.709-1.704 1.582-1.704.381 0 .706.072.891.197a1.17 1.17 0 0 0 1.606-.288 1.123 1.123 0 0 0-.293-1.58c-.577-.393-1.339-.601-2.204-.601-2.146 0-3.892 1.784-3.892 3.976 0 2.462 1.494 4.115 3.717 4.115 1.504 0 3.224-1.263 3.274-2.955.019-.711-.158-1.259-.524-1.63a1.54 1.54 0 0 0-1.108-.456"/><g fill="#472b29"><path d="M63.902 51.816h-2.84a1.263 1.263 0 0 1-1.261-1.261V47.83l.003-.03h-.003v-2.924c0-.695.565-1.261 1.261-1.261.012 0 .051.007.063.01.011-.003.028-.01.04-.01h2.737a1.262 1.262 0 0 1 0 2.522h-1.579v.513h1.188a1.152 1.152 0 0 1 0 2.302h-1.188v.344h1.579a1.26 1.26 0 1 1 0 2.52m-3.857-3.976.007 2.715c0 .558.453 1.011 1.011 1.011h2.84a1.012 1.012 0 0 0 0-2.022h-1.704a.125.125 0 0 1-.125-.125v-.594c0-.069.056-.125.125-.125h1.313a.902.902 0 0 0 0-1.802h-1.313a.125.125 0 0 1-.125-.125v-.763c0-.069.056-.125.125-.125h1.704a1.012 1.012 0 0 0 0-2.022h-2.737a.1.1 0 0 1-.045.01.3.3 0 0 1-.066-.01 1.01 1.01 0 0 0-1.002 1.011v2.924a.1.1 0 0 1-.008.042m-17.822 1.704c-.401 0-.728-.311-.728-.693v-3.976c0-.557-.483-1.011-1.078-1.011s-1.079.454-1.079 1.011a.125.125 0 0 1-.25 0c0-.695.597-1.261 1.329-1.261s1.328.565 1.328 1.261v3.976c0 .244.214.443.478.443.263 0 .477-.199.477-.443v-3.976c0-.695.596-1.261 1.328-1.261s1.329.565 1.329 1.261v2.941a.125.125 0 0 1-.25 0v-2.941c0-.557-.484-1.011-1.079-1.011s-1.078.454-1.078 1.011v3.976c-.001.382-.327.693-.727.693"/><path d="M42.223 51.816c-1.729 0-3.135-1.33-3.135-2.965a.125.125 0 0 1 .25 0c0 1.497 1.294 2.715 2.885 2.715s2.884-1.218 2.884-2.715a.125.125 0 0 1 .25 0c-.001 1.635-1.407 2.965-3.134 2.965m-3.01-3.827a.125.125 0 0 1-.125-.125v-1.823a.125.125 0 0 1 .25 0v1.823a.125.125 0 0 1-.125.125m-3.183 3.827h-2.231a1.263 1.263 0 0 1-1.261-1.261v-1.7a.125.125 0 0 1 .25 0v1.7a1.01 1.01 0 0 0 1.063 1.011h2.18c1.495 0 2.424-.819 2.424-2.137 0-.754-.291-1.372-.842-1.787q-.042-.033-.049-.086c-.007-.053.007-.068.028-.095.363-.428.556-.958.556-1.531 0-1.419-1.184-2.066-2.284-2.066h-2.115c-.096 0-.125.021-.135.028a.2.2 0 0 1-.044.02 1 1 0 0 0-.781.962v.943a.125.125 0 0 1-.25 0v-.943c0-.564.39-1.055.951-1.2a.5.5 0 0 1 .259-.061h2.115c1.26 0 2.534.795 2.534 2.316 0 .589-.185 1.137-.534 1.592.544.458.841 1.129.841 1.906-.001 1.452-1.051 2.389-2.675 2.389m-.167-1.72h-.928a.125.125 0 0 1-.125-.125V48.64c0-.069.056-.125.125-.125h.928c.271 0 .65.297.65.78.001.496-.378.801-.65.801m-.802-.25h.803c.136 0 .4-.194.4-.551 0-.343-.265-.53-.4-.53h-.803zm-2.398-1.633a.125.125 0 0 1-.125-.125v-1.535a.125.125 0 0 1 .25 0v1.535a.125.125 0 0 1-.125.125m2.979-1.114h-.706a.125.125 0 0 1-.125-.125v-1.331c0-.069.056-.125.125-.125h.706c.472 0 .719.495.719.76-.001.268-.176.821-.719.821m-.581-.25h.581c.448 0 .469-.565.469-.571 0-.152-.159-.51-.469-.51h-.581zm15.859 4.967c-.619 0-1.163-.388-1.457-1.039a9.7 9.7 0 0 1-.659-1.667h-.257v1.444a1.262 1.262 0 0 1-2.523 0v-4.529a.125.125 0 0 1 .25 0v4.529a1.012 1.012 0 0 0 2.023 0v-1.569c0-.069.056-.125.125-.125h.478c.058 0 .107.039.121.094.142.561.438 1.265.667 1.714.254.564.714.897 1.231.897.558 0 1.012-.454 1.012-1.011 0-.323-.158-.591-.377-.963-.181-.308-.407-.692-.604-1.223a.12.12 0 0 1 .032-.135c.521-.479.795-1.168.795-1.994 0-1.632-1.184-2.375-2.283-2.375h-2.116l-.042.007c-.039 0-.057-.006-.066-.009a1.01 1.01 0 0 0-.996 1.012.125.125 0 0 1-.25 0c0-.695.566-1.261 1.262-1.261.012 0 .044.006.056.009-.01-.005.01-.009.037-.009h2.116c1.22 0 2.533.821 2.533 2.625 0 .864-.281 1.595-.813 2.119.181.47.38.808.556 1.107.229.391.411.699.411 1.09 0 .696-.567 1.262-1.262 1.262m-2.023-4.527h-.476a.125.125 0 0 1-.125-.125v-1.52c0-.069.056-.125.125-.125h.476c.489 0 1.009.3 1.009.856 0 .572-.377.914-1.009.914m-.35-.25h.351c.346 0 .759-.115.759-.664 0-.442-.466-.606-.759-.606h-.351zm21.684 4.777c-.619 0-1.163-.388-1.457-1.039a9.7 9.7 0 0 1-.659-1.667h-.112v1.444a1.262 1.262 0 0 1-2.522 0v-5.68c0-.572.4-1.068.973-1.206a.123.123 0 0 1 .15.092.124.124 0 0 1-.092.151 1 1 0 0 0-.781.962v5.68a1.011 1.011 0 0 0 2.022 0v-1.569c0-.069.056-.125.125-.125h.334c.058 0 .107.039.121.094.142.561.438 1.265.667 1.714.254.564.714.897 1.231.897.558 0 1.011-.454 1.011-1.011 0-.323-.158-.592-.376-.964a7 7 0 0 1-.604-1.223.12.12 0 0 1 .032-.135c.521-.479.795-1.168.795-1.994 0-.757-.254-1.383-.733-1.811a.124.124 0 0 1-.011-.176.124.124 0 0 1 .177-.01c.535.477.817 1.167.817 1.997 0 .864-.281 1.595-.813 2.119.181.47.379.807.555 1.106.229.391.411.699.411 1.09 0 .698-.565 1.264-1.261 1.264m-2.022-4.527h-.331a.125.125 0 0 1-.125-.125v-1.52c0-.069.056-.125.125-.125h.331c.489 0 1.009.3 1.009.856 0 .572-.377.914-1.009.914m-.206-.25h.206c.346 0 .759-.115.759-.664 0-.442-.466-.606-.759-.606h-.206zm1.813-2.972a.1.1 0 0 1-.049-.01 2.5 2.5 0 0 0-.961-.193h-1.175a.125.125 0 0 1 0-.25h1.175c.367 0 .733.074 1.059.213a.126.126 0 0 1 .066.164.12.12 0 0 1-.115.076m-15.733.457a.13.13 0 0 1-.104-.055.126.126 0 0 1 .033-.174c.434-.293.91-.496 1.417-.601a.12.12 0 0 1 .147.097.124.124 0 0 1-.097.148 3.7 3.7 0 0 0-1.327.563.1.1 0 0 1-.069.022"/><path d="M56.055 51.955c-2.299 0-3.843-1.704-3.843-4.24 0-1.116.434-2.16 1.22-2.941a.125.125 0 1 1 .176.178 3.87 3.87 0 0 0-1.146 2.763c0 2.387 1.443 3.99 3.593 3.99 1.447 0 3.101-1.212 3.148-2.834.019-.674-.146-1.192-.488-1.538a1.43 1.43 0 0 0-1.021-.419l-.363-.005a25 25 0 0 0-.576-.008c-.568 0-1.03.454-1.03 1.011 0 .558.462 1.011 1.03 1.011l.182.001c.046 0 .088.025.109.066.021.04.02.089-.006.127-.202.313-.644.567-.985.567-.988 0-1.533-.699-1.533-1.968 0-1.009.767-1.829 1.708-1.829.405 0 .756.08.961.219a1.043 1.043 0 0 0 1.434-.256 1 1 0 0 0-.262-1.405c-.556-.379-1.293-.579-2.133-.579a.125.125 0 0 1 0-.25c.891 0 1.677.215 2.273.622.282.192.472.481.533.814.061.331-.013.665-.207.941a1.29 1.29 0 0 1-1.779.319c-.162-.109-.469-.175-.82-.175-.804 0-1.458.708-1.458 1.579 0 1.14.432 1.718 1.283 1.718.187 0 .429-.111.606-.264a1.27 1.27 0 0 1-1.187-1.258c0-.695.574-1.261 1.28-1.261q.314.001.571.008l.37.005c.456 0 .882.175 1.196.493.393.396.581.975.561 1.721-.051 1.761-1.836 3.077-3.397 3.077"/></g><path d="M46.043 52.827a2.02 2.02 0 0 0-2.02 2.02v8.012a2.02 2.02 0 0 0 4.04 0v-8.012a2.02 2.02 0 0 0-2.02-2.02m12.084 0a2.02 2.02 0 0 0-2.02 2.02v3.775l-2.556-4.675c-.022-.04-.059-.065-.086-.102a2.01 2.01 0 0 0-1.744-1.018 2.02 2.02 0 0 0-2.02 2.02v8.012a2.02 2.02 0 0 0 4.04 0v-3.826l2.438 4.46c.019.034.045.059.067.09a2.016 2.016 0 0 0 3.9-.724v-8.012a2.02 2.02 0 0 0-2.019-2.02M40.36 58.535c1.1-.928 1.877-2.052 2.291-2.904a1.988 1.988 0 1 0-3.577-1.735c-.01.021-.909 1.692-2.372 2.219v-1.268a2.02 2.02 0 0 0-4.04 0v8.012a2.02 2.02 0 0 0 4.04 0v-2.093c1.654.958 2.649 2.738 2.673 2.784a1.988 1.988 0 0 0 3.521-1.847c-.057-.112-.919-1.717-2.536-3.168m28.608-.987-1.649-.002a1.44 1.44 0 1 0 0 2.882c.884 0 .755.643.529.765a1.7 1.7 0 0 1-.488.178c-.415.106-1.075-.011-1.471-.249q-.639-.32-.945-1.099a3 3 0 0 1-.201-.866c-.023-.155-.02-.321-.024-.486.008-.149 0-.272.028-.404a2.34 2.34 0 0 1 .698-1.37c.37-.37.851-.606 1.369-.67.571-.07 1.321.025 1.596.198l.013.008a1.662 1.662 0 0 0 1.828-2.778 5.2 5.2 0 0 0-1.885-.796c-.642-.127-1.151-.191-1.842-.144-1.317.093-2.625.64-3.577 1.563a5.97 5.97 0 0 0-1.798 3.454 6 6 0 0 0-.07.974c.012.297.023.592.07.894.079.599.228 1.211.488 1.804.491 1.184 1.466 2.306 2.722 2.876 1.265.543 2.56.672 3.922.26 1.265-.431 2.422-1.255 3.007-2.644.182-.421.285-.906.285-1.402.002-1.737-1.349-2.946-2.605-2.946" fill="#ee3e54"/><g fill="#472b29"><path d="M46.043 65.003a2.15 2.15 0 0 1-2.146-2.145v-8.012c0-1.183.963-2.145 2.146-2.145s2.145.962 2.145 2.145v2.226a.125.125 0 0 1-.25 0v-2.226c0-1.045-.85-1.895-1.895-1.895s-1.896.85-1.896 1.895v8.012c0 1.045.851 1.895 1.896 1.895s1.895-.85 1.895-1.895v-1.326a.125.125 0 0 1 .25 0v1.326a2.147 2.147 0 0 1-2.145 2.145"/><path d="M48.063 60.435a.125.125 0 0 1-.125-.125v-2.038a.125.125 0 0 1 .25 0v2.038a.125.125 0 0 1-.125.125m12.083-.121a.125.125 0 0 1-.125-.125v-5.343c0-1.045-.85-1.895-1.895-1.895s-1.895.85-1.895 1.895v3.775a.125.125 0 0 1-.235.059l-2.556-4.675a.2.2 0 0 0-.028-.032q-.026-.026-.049-.056a1.9 1.9 0 0 0-1.643-.967c-1.045 0-1.895.85-1.895 1.895a.125.125 0 0 1-.25 0c0-1.183.962-2.145 2.145-2.145.759 0 1.469.414 1.853 1.081.001 0 .01.008.018.017.021.022.049.049.069.089l2.32 4.245v-3.286c0-1.183.962-2.145 2.145-2.145s2.145.962 2.145 2.145v5.343a.12.12 0 0 1-.124.125m-2.019 4.689c-.892 0-1.675-.54-1.996-1.376l-.006.002a.4.4 0 0 1-.055-.077l-2.203-4.03v3.337c0 1.183-.962 2.145-2.145 2.145s-2.145-.962-2.145-2.145v-6.553a.125.125 0 0 1 .25 0v6.553c0 1.045.85 1.895 1.895 1.895s1.895-.85 1.895-1.895v-3.826c0-.057.039-.107.094-.121.059-.018.113.012.141.062l2.438 4.46.027.036.032.041c.299.766.991 1.243 1.778 1.243 1.045 0 1.895-.85 1.895-1.895v-1.302a.125.125 0 0 1 .25 0v1.302a2.15 2.15 0 0 1-2.145 2.144m-23.444 0a2.147 2.147 0 0 1-2.145-2.145v-3.676a.125.125 0 0 1 .25 0v3.676c0 1.045.85 1.895 1.895 1.895s1.895-.85 1.895-1.895v-2.093c0-.045.023-.086.063-.108a.13.13 0 0 1 .125 0c1.624.94 2.612 2.639 2.72 2.829a1.86 1.86 0 0 0 2.511.787 1.85 1.85 0 0 0 .916-1.095 1.85 1.85 0 0 0-.126-1.419c-.009-.017-.87-1.661-2.51-3.132-.027-.023-.043-.059-.042-.095s.017-.07.045-.094a9.1 9.1 0 0 0 2.259-2.864 1.865 1.865 0 0 0-.863-2.489 1.86 1.86 0 0 0-1.423-.083 1.84 1.84 0 0 0-1.065.946.12.12 0 0 1-.167.058.125.125 0 0 1-.058-.167 2.1 2.1 0 0 1 1.208-1.074 2.1 2.1 0 0 1 1.614.095 2.116 2.116 0 0 1 .979 2.823 9.3 9.3 0 0 1-2.215 2.853c1.605 1.476 2.451 3.09 2.46 3.106.261.499.312 1.071.143 1.609a2.1 2.1 0 0 1-1.039 1.24 2.107 2.107 0 0 1-2.846-.887c-.099-.176-.983-1.695-2.438-2.62v1.871a2.15 2.15 0 0 1-2.146 2.148m-2.02-6.895a.125.125 0 0 1-.125-.125v-1.846a.125.125 0 0 1 .25 0v1.846c0 .07-.056.125-.125.125"/><path d="M36.702 56.239a.126.126 0 0 1-.125-.125v-1.268c0-1.045-.85-1.895-1.895-1.895s-1.895.85-1.895 1.895a.125.125 0 0 1-.25 0c0-1.183.962-2.145 2.145-2.145s2.145.962 2.145 2.145v1.083c.519-.224 1.02-.618 1.49-1.172.045-.052.124-.059.177-.014s.059.124.015.176c-.551.647-1.145 1.088-1.765 1.312a.1.1 0 0 1-.042.008m29.975 8.671c-.782 0-1.565-.172-2.364-.514-1.21-.55-2.252-1.649-2.788-2.944a6.7 6.7 0 0 1-.497-1.835 8 8 0 0 1-.069-.861l-.002-.045c.003-.311.011-.664.071-1.001.1-.693.324-1.369.669-2.002a.124.124 0 0 1 .169-.05.124.124 0 0 1 .05.169 5.7 5.7 0 0 0-.641 1.923 6 6 0 0 0-.068.957l.002.038c.012.285.023.556.066.836.087.658.244 1.237.479 1.772.515 1.24 1.508 2.291 2.659 2.813 1.299.558 2.554.642 3.834.254.98-.334 2.288-1.054 2.928-2.573a3.4 3.4 0 0 0 .275-1.354c0-1.663-1.309-2.821-2.482-2.821l-1.648-.002c-.726 0-1.316.591-1.316 1.316s.591 1.315 1.316 1.315c.604 0 .764.277.805.442.055.214-.043.464-.216.558s-.35.158-.524.191c-.438.11-1.125-.004-1.559-.265-.44-.22-.779-.612-.996-1.161a3.1 3.1 0 0 1-.209-.899c-.019-.128-.021-.267-.023-.4l-.002-.095c.003-.053.003-.095.004-.135.003-.1.005-.194.026-.298.065-.527.326-1.04.733-1.435.388-.387.9-.637 1.441-.704.613-.072 1.375.025 1.677.215a1.539 1.539 0 0 0 1.704-2.561 5 5 0 0 0-1.84-.776c-.631-.125-1.132-.189-1.807-.142a5.8 5.8 0 0 0-1.621.355.126.126 0 0 1-.161-.073.126.126 0 0 1 .073-.161 6 6 0 0 1 1.691-.37c.706-.05 1.222.017 1.875.146.74.161 1.371.428 1.932.815a1.79 1.79 0 0 1 .453 2.489 1.783 1.783 0 0 1-2.419.499c-.242-.152-.935-.258-1.526-.188a2.24 2.24 0 0 0-1.298.634 2.2 2.2 0 0 0-.662 1.297 1.3 1.3 0 0 0-.022.263l-.004.133.002.086c.002.133.004.257.021.375q.049.492.192.836c.197.499.486.837.885 1.035.379.229 1.009.335 1.384.24q.235-.045.46-.168c.058-.03.123-.156.093-.276-.041-.163-.24-.253-.563-.253-.863 0-1.566-.702-1.566-1.565s.703-1.566 1.566-1.566l1.648.002c1.319 0 2.732 1.234 2.732 3.071 0 .505-.103 1.007-.296 1.452-.534 1.269-1.6 2.208-3.081 2.713a5.6 5.6 0 0 1-1.645.253m-4.28-9.908a.125.125 0 0 1-.098-.203q.263-.327.563-.612a5.5 5.5 0 0 1 1.002-.766c.06-.033.137-.017.172.043s.016.136-.043.172a5.3 5.3 0 0 0-.958.731 6 6 0 0 0-.54.587.12.12 0 0 1-.098.048"/></g><path d="M16.5 50h-10a.5.5 0 0 1 0-1h10a.5.5 0 0 1 0 1m3 0h-1a.5.5 0 0 1 0-1h1a.5.5 0 0 1 0 1m4.991 2H15.5a.5.5 0 0 1 0-1h8.991a.5.5 0 0 1 0 1M13.5 52h-1a.5.5 0 0 1 0-1h1a.5.5 0 0 1 0 1m-3 0h-2a.5.5 0 0 1 0-1h2a.5.5 0 0 1 0 1m6 2h-2a.5.5 0 0 1 0-1h2a.5.5 0 0 1 0 1m3-9h-1a.5.5 0 0 0 0 1h1a.5.5 0 0 0 0-1m0 2h-5a.5.5 0 0 0 0 1h5a.5.5 0 0 0 0-1m5 2h-3a.5.5 0 0 0 0 1h3a.5.5 0 0 0 0-1m63 16h-10a.5.5 0 0 1 0-1h10a.5.5 0 0 1 0 1m4 0h-2a.5.5 0 0 1 0-1h2a.5.5 0 0 1 0 1m5 2h-10a.5.5 0 0 1 0-1h10a.5.5 0 0 1 0 1m-12 0h-1a.5.5 0 0 1 0-1h1a.5.5 0 0 1 0 1m-3.03 0H79.5a.5.5 0 0 1 0-1h1.97a.5.5 0 0 1 0 1m9.03-4h-5a.5.5 0 0 1 0-1h5a.5.5 0 0 1 0 1m-3 6h-2a.5.5 0 0 1 0-1h2a.5.5 0 0 1 0 1" fill="#fff"/><path fill="#fdfcef" d="M20.5 85.5H17a3.5 3.5 0 0 1-3.5-3.5 3.49 3.49 0 0 1 3.055-3.455A3.5 3.5 0 0 1 16.5 78a3.5 3.5 0 0 1 3.5-3.5c1.032 0 1.95.455 2.59 1.165a3.999 3.999 0 0 1 7.91.835c0 .191-.03.374-.056.558A2.47 2.47 0 0 1 32 76.5c1.228 0 2.245.887 2.455 2.055.179-.028.358-.055.545-.055a3.5 3.5 0 1 1 0 7h-7.5v.5h-7z"/><path fill="#472b29" d="M18.75 81a.25.25 0 0 0 .25-.25 2.22 2.22 0 0 0-2.218-2.218c-.034.009-.737-.001-1.244.136a.25.25 0 0 0 .13.482c.444-.12 1.1-.12 1.113-.118A1.72 1.72 0 0 1 18.5 80.75c0 .138.112.25.25.25"/><circle cx="25.5" cy="85.5" r=".5" fill="#472b29"/><path fill="#472b29" d="M17 86h3.5a.5.5 0 0 0 0-1H17c-1.654 0-3-1.346-3-3a2.996 2.996 0 0 1 2.618-2.959.5.5 0 0 0 .43-.573C17.025 78.314 17 78.16 17 78c0-1.654 1.346-3 3-3 .85 0 1.638.355 2.219 1a.498.498 0 0 0 .86-.231A3.514 3.514 0 0 1 26.5 73c1.93 0 3.5 1.57 3.5 3.5 0 .143-.021.28-.041.418-.029.203.063.438.242.54s.396.118.556-.01A1.97 1.97 0 0 1 32 77c.966 0 1.792.691 1.963 1.644a.5.5 0 0 0 .569.405c.154-.024.308-.049.468-.049 1.654 0 3 1.346 3 3s-1.346 3-3 3h-7.5a.5.5 0 0 0 0 1H35c2.206 0 4-1.794 4-4a4.004 4.004 0 0 0-4.174-3.994A2.99 2.99 0 0 0 32 76c-.349 0-.689.061-1.011.18A4.506 4.506 0 0 0 26.5 72a4.52 4.52 0 0 0-4.153 2.774A3.98 3.98 0 0 0 20 74a4.004 4.004 0 0 0-3.996 4.142A4 4 0 0 0 13 82c0 2.206 1.794 4 4 4"/><path fill="#472b29" d="M22.5 85h1a.5.5 0 0 1 0 1h-1a.5.5 0 0 1 0-1"/></svg>